# xmcd
#
# Track frame offsets: 
#        150
#        24840
#        51280
#        71727
#        95212
#        109832
#        136512
#        163482
#        188655
#        208110
#        228637
#
# Disc length: 3279 seconds
#
# Revision: 3
# Processed by: cddbd v1.5.2PL0 Copyright (c) Steve Scherf et al.
# Submitted via: ExactAudioCopyFreeDBPlugin 1.0
#
DISCID=9d0ccd0b
DTITLE=Steve Lukather - Ever Changing Times
DYEAR=2008
DGENRE=Blues
TTITLE0=Ever Changing Times
TTITLE1=The Letting Go
TTITLE2=New World
TTITLE3=Tell Me What You Want From Me
TTITLE4=I Am
TTITLE5=Jammin With Jesus
TTITLE6=Stab In The Back
TTITLE7=Never Ending Nights
TTITLE8=Icebound
TTITLE9=How Many Zeros
TTITLE10=The Truth
EXTD=
EXTT0=
EXTT1=
EXTT2=
EXTT3=
EXTT4=
EXTT5=
EXTT6=
EXTT7=
EXTT8=
EXTT9=
EXTT10=
PLAYORDER=
